<svg xmlns="http://www.w3.org/2000/svg" viewBox="0 0 1600 900" width="1600" height="900">
<rect width="1600" height="900" fill="#243B53"/>
<circle cx="1300" cy="180" r="70" fill="#F0B429"/>
<rect x="0" y="640" width="1600" height="260" fill="#102A43"/>
<rect x="700" y="170" width="90" height="470" fill="#D9E2EC"/>
<rect x="810" y="170" width="90" height="470" fill="#BCCCDC"/>
<rect x="700" y="380" width="200" height="22" fill="#9FB3C8"/>
<g stroke="#829AB1" stroke-width="3">
<line x1="700" y1="220" x2="790" y2="220"/><line x1="700" y1="270" x2="790" y2="270"/><line x1="700" y1="320" x2="790" y2="320"/><line x1="700" y1="450" x2="790" y2="450"/><line x1="700" y1="500" x2="790" y2="500"/><line x1="700" y1="550" x2="790" y2="550"/>
<line x1="810" y1="220" x2="900" y2="220"/><line x1="810" y1="270" x2="900" y2="270"/><line x1="810" y1="320" x2="900" y2="320"/><line x1="810" y1="450" x2="900" y2="450"/><line x1="810" y1="500" x2="900" y2="500"/><line x1="810" y1="550" x2="900" y2="550"/>
</g>
<rect x="260" y="600" width="1080" height="44" fill="#F0F4F8"/>
<path d="M360 600 Q 470 470 580 600 Z" fill="#F0F4F8" transform="rotate(180 470 560)"/>
<path d="M1020 600 Q 1130 470 1240 600 Z" fill="#F0F4F8"/>
<rect x="260" y="644" width="1080" height="16" fill="#9FB3C8"/>
</svg>
